<svg viewBox="0 0 480 480"><path d="m56 392-48-16v-128l48-16zm0 0" fill="#348fd9"/><path d="m80 208h16c13.253906 0 24 10.746094 24 24v160c0 13.253906-10.746094 24-24 24h-16c-13.253906 0-24-10.746094-24-24v-160c0-13.253906 10.746094-24 24-24zm0 0" fill="#3d4d63"/><path d="m424 232 48 16v128l-48 16zm0 0" fill="#348fd9"/><path d="m400 416h-16c-13.253906 0-24-10.746094-24-24v-160c0-13.253906 10.746094-24 24-24h16c13.253906 0 24 10.746094 24 24v160c0 13.253906-10.746094 24-24 24zm0 0" fill="#3d4d63"/><path d="m360 344v48c0 13.253906 10.746094 24 24 24h16c13.253906 0 24-10.746094 24-24v-112zm0 0" fill="#374559"/><path d="m24 224v18.664062l32-10.664062v-8c-.046875-33.292969 8.984375-65.96875 26.121094-94.511719l-26.273438-18.398437c-20.878906 33.953125-31.90625 73.046875-31.847656 112.910156zm0 0" fill="#3086cd"/><path d="m397.878906 129.488281c17.136719 28.542969 26.167969 61.21875 26.121094 94.511719v8l32 10.664062v-18.664062c.054688-39.859375-10.972656-78.949219-31.847656-112.902344zm0 0" fill="#3086cd"/><path d="m240 8c-75.144531-.03125-144.898438 39.019531-184.152344 103.097656l26.273438 18.398438c33.230468-55.519532 93.175781-89.5 157.878906-89.5s124.648438 33.980468 157.878906 89.5l26.273438-18.398438c-39.253906-64.078125-109.007813-103.128906-184.152344-103.097656zm0 0" fill="#3d4d63"/><path d="m184 152h112c17.671875 0 32 14.328125 32 32v256c0 17.671875-14.328125 32-32 32h-112c-17.671875 0-32-14.328125-32-32v-256c0-17.671875 14.328125-32 32-32zm0 0" fill="#e0e0de"/><path d="m296 152h-48c17.671875 0 32 14.328125 32 32v256c0 17.671875-14.328125 32-32 32h48c17.671875 0 32-14.328125 32-32v-256c0-17.671875-14.328125-32-32-32zm0 0" fill="#d6d6d4"/><path d="m152 216h176v192h-176zm0 0" fill="#ffb531"/><path d="m280 216h48v192h-48zm0 0" fill="#ffa912"/><g fill="#b0b0ae"><path d="m232 432h16v16h-16zm0 0"/><path d="m208 176h64v16h-64zm0 0"/><path d="m176 176h16v16h-16zm0 0"/></g><path d="m56 344v48c0 13.253906 10.746094 24 24 24h16c13.253906 0 24-10.746094 24-24v-112zm0 0" fill="#374559"/><path d="m474.527344 240.414062-10.527344-3.511718v-12.902344c0-123.710938-100.289062-224-224-224s-224 100.289062-224 224v12.902344l-10.527344 3.511718c-3.265625 1.089844-5.46874975 4.144532-5.472656 7.585938v128c.00390625 3.441406 2.207031 6.496094 5.472656 7.585938l43.128906 14.398437c2.871094 15.082031 16.046876 26 31.398438 26.015625h16c17.671875 0 32-14.328125 32-32v-160c0-17.671875-14.328125-32-32-32h-16c-5.152344.03125-10.21875 1.328125-14.753906 3.777344 10.179687-88.816406 85.359375-155.867188 174.753906-155.867188s164.574219 67.050782 174.753906 155.867188c-4.535156-2.449219-9.601562-3.746094-14.753906-3.777344h-16c-17.671875 0-32 14.328125-32 32v160c0 17.671875 14.328125 32 32 32h16c15.359375-.019531 28.539062-10.949219 31.398438-26.039062l43.128906-14.402344c3.257812-1.082032 5.460937-4.125 5.472656-7.558594v-128c-.003906-3.441406-2.207031-6.496094-5.472656-7.585938zm-26.527344-8.855468-16-5.328125v-2.230469c.011719-32.207031-8.085938-63.898438-23.542969-92.152344l13.183594-9.230468c17.304687 30.984374 26.382813 65.890624 26.359375 101.382812zm-416-7.558594c-.007812-35.496094 9.078125-70.402344 26.398438-101.382812l13.1875 9.230468c-15.476563 28.25-23.585938 59.941406-23.585938 92.152344v2.230469l-16 5.328125zm-16 29.769531 32-10.664062v137.789062l-32-10.664062zm64-37.769531h16c8.835938 0 16 7.164062 16 16v160c0 8.835938-7.164062 16-16 16h-16c-8.835938 0-16-7.164062-16-16v-160c0-8.835938 7.164062-16 16-16zm160-184c-64.40625.21875-124.46875 32.511719-160.167969 86.121094l-13.113281-9.183594c38.546875-58.050781 103.597656-92.945312 173.28125-92.945312s134.734375 34.894531 173.28125 92.945312l-13.113281 9.183594c-35.699219-53.609375-95.761719-85.902344-160.167969-86.121094zm160 376h-16c-8.835938 0-16-7.164062-16-16v-160c0-8.835938 7.164062-16 16-16h16c8.835938 0 16 7.164062 16 16v160c0 8.835938-7.164062 16-16 16zm64-37.769531-32 10.664062v-137.789062l32 10.664062zm0 0"/><path d="m296 480c22.082031-.027344 39.972656-17.917969 40-40v-256c-.027344-22.082031-17.917969-39.972656-40-40h-112c-22.082031.027344-39.972656 17.917969-40 40v256c.027344 22.082031 17.917969 39.972656 40 40zm-136-256h160v176h-160zm24-64h112c13.253906 0 24 10.746094 24 24v24h-160v-24c0-13.253906 10.746094-24 24-24zm-24 280v-24h160v24c0 13.253906-10.746094 24-24 24h-112c-13.253906 0-24-10.746094-24-24zm0 0"/><path d="m232 432h16v16h-16zm0 0"/><path d="m208 176h64v16h-64zm0 0"/><path d="m176 176h16v16h-16zm0 0"/><path d="m296 256h-80c-4.417969 0-8 3.582031-8 8v65.472656c-2.5625-.949218-5.269531-1.445312-8-1.472656-13.253906 0-24 10.746094-24 24s10.746094 24 24 24 24-10.746094 24-24v-48h64v25.472656c-2.5625-.949218-5.269531-1.445312-8-1.472656-13.253906 0-24 10.746094-24 24s10.746094 24 24 24 24-10.746094 24-24v-88c0-4.417969-3.582031-8-8-8zm-96 104c-4.417969 0-8-3.582031-8-8s3.582031-8 8-8 8 3.582031 8 8-3.582031 8-8 8zm24-72v-16h64v16zm56 72c-4.417969 0-8-3.582031-8-8s3.582031-8 8-8 8 3.582031 8 8-3.582031 8-8 8zm0 0"/></svg>